<?xml version="1.0" standalone="no"?>
<!DOCTYPE svg PUBLIC "-//W3C//DTD SVG 20010904//EN"
 "http://www.w3.org/TR/2001/REC-SVG-20010904/DTD/svg10.dtd">
<svg version="1.0" xmlns="http://www.w3.org/2000/svg"
 width="1600.000000pt" height="1587.000000pt" viewBox="0 0 1600.000000 1587.000000"
 preserveAspectRatio="xMidYMid meet">

  <defs>
    <linearGradient id="Gradient1" x1="100%" y1="0%" x2="0%" y2="100%">
      <stop offset="20%" stop-color="#bebb00"/>
      <stop offset="60%" stop-color="#fffa22"/>
    </linearGradient>
  </defs>

<g transform="translate(0.000000,1587.000000) scale(0.100000,-0.100000)"
fill="#fffa22" stroke="none">
<path fill="url(#Gradient1)" d="M6675 14244 c-44 -14 -134 -43 -200 -63 -66 -21 -320 -101 -565 -177
-322 -100 -457 -147 -490 -169 -55 -37 -96 -103 -110 -174 -6 -35 -10 -514
-10 -1352 l0 -1299 -60 0 -60 0 0 1095 c0 602 -3 1095 -7 1095 -15 0 -190
-135 -293 -225 -174 -153 -336 -342 -476 -555 -151 -231 -173 -289 -118 -311
l24 -9 0 -545 0 -545 -157 0 c-283 0 -441 -28 -588 -104 -95 -48 -203 -149
-258 -242 -20 -34 -127 -290 -237 -570 -111 -280 -260 -657 -331 -839 -156
-394 -183 -472 -204 -589 -21 -122 -20 -181 20 -931 19 -363 49 -919 65 -1235
45 -840 43 -823 77 -922 68 -197 210 -338 400 -399 52 -16 103 -22 216 -26 81
-3 147 -8 147 -11 0 -2 -23 -76 -50 -164 l-50 -159 0 -845 c0 -572 3 -859 11
-888 12 -50 48 -93 93 -111 22 -9 120 -15 321 -19 160 -3 399 -9 532 -12 l243
-6 5 -32 c3 -17 21 -197 40 -401 54 -560 54 -564 106 -612 25 -23 89 -38 694
-164 132 -28 335 -70 450 -94 116 -24 338 -71 495 -103 l285 -60 1365 0 c1153
0 1376 2 1435 15 506 104 1549 323 1703 356 62 14 124 32 137 41 59 39 74 115
120 606 20 212 38 399 41 416 l4 32 243 6 c133 3 373 8 532 12 330 6 353 11
396 80 l24 39 3 871 2 871 -50 160 c-27 88 -50 163 -50 165 0 3 66 8 148 10
126 5 159 9 231 33 149 50 281 167 352 310 58 120 66 178 94 725 14 278 32
624 40 770 37 662 75 1413 75 1496 0 189 -25 280 -203 729 -63 160 -145 367
-182 460 -259 660 -361 914 -393 973 -56 102 -168 209 -272 261 -152 74 -304
101 -582 101 l-158 0 0 549 0 550 23 3 c17 2 23 10 25 38 2 28 -10 56 -60 140
-150 251 -349 499 -535 666 -96 85 -301 244 -315 244 -5 0 -8 -493 -8 -1095
l0 -1095 -60 0 -60 0 -2 1333 -3 1333 -30 59 c-19 37 -46 72 -73 92 -46 35
-60 40 -870 292 l-482 151 -1243 0 -1242 -1 -80 -25z m1530 -394 c301 -94 502
-346 522 -656 31 -479 -399 -853 -875 -759 -48 10 -116 34 -179 66 -236 115
-384 341 -400 609 -22 366 238 694 605 760 80 15 249 4 327 -20z m-3145 -2300
l0 -540 -275 0 -275 0 0 473 c0 439 2 475 19 513 19 41 59 77 96 87 11 2 113
5 228 6 l207 1 0 -540z m6359 511 c18 -13 42 -42 52 -65 17 -38 19 -74 19
-513 l0 -473 -275 0 -275 0 0 541 0 540 223 -3 c216 -3 223 -4 256 -27z
m-7107 -2878 l3 -1638 433 -3 432 -2 0 1640 0 1640 60 0 60 0 0 -1640 0 -1640
685 2 685 3 0 -67 0 -68 -1265 0 -1265 0 0 1705 0 1705 85 0 85 0 2 -1637z
m748 1352 l0 -285 -210 0 c-238 0 -260 5 -306 66 l-29 37 -3 234 -3 233 275 0
276 0 0 -285z m5760 -1355 l0 -1640 433 2 432 3 3 1638 2 1637 85 0 85 0 0
-1705 0 -1705 -1265 0 -1265 0 0 65 0 65 685 0 685 0 0 1640 0 1640 60 0 60 0
0 -1640z m668 1407 l-3 -234 -29 -37 c-46 -61 -68 -66 -306 -66 l-210 0 0 285
0 285 276 0 275 0 -3 -233z m-7538 -1554 l0 -1777 -131 -405 c-120 -370 -131
-410 -128 -470 1 -36 1 -132 0 -213 l-1 -147 -32 11 c-17 6 -51 30 -74 53 -33
34 -44 54 -52 96 -6 30 -16 317 -21 639 -6 322 -13 702 -16 845 -10 478 -25
1284 -35 1930 -5 352 -12 705 -14 784 -6 157 -6 156 56 238 81 106 255 187
411 192 l37 1 0 -1777z m8310 1742 c98 -32 186 -90 238 -158 62 -82 62 -82 57
-234 -3 -76 -10 -415 -15 -753 -10 -582 -17 -988 -40 -2245 -24 -1306 -19
-1194 -50 -1255 -23 -44 -56 -75 -101 -94 l-36 -15 -6 230 -7 231 -125 386
-124 387 -1 770 c0 424 -1 1224 0 1779 l0 1009 66 -7 c36 -4 100 -18 144 -31z
m-8991 -1084 c1 -140 3 -257 5 -260 2 -3 7 -215 10 -471 4 -256 11 -683 16
-950 5 -267 14 -773 20 -1125 6 -352 15 -668 20 -703 10 -68 46 -157 87 -210
33 -44 128 -105 188 -122 26 -7 49 -18 51 -24 2 -6 -18 -82 -45 -168 -27 -86
-46 -160 -43 -163 8 -8 8840 -6 8845 3 3 4 -17 77 -44 162 -27 85 -49 157 -49
160 0 3 39 23 86 45 152 68 223 161 243 320 5 44 12 240 16 435 6 400 20 1179
35 1925 5 275 12 700 16 945 4 245 9 472 13 504 l6 59 29 -74 c16 -41 66 -168
111 -284 263 -665 356 -908 375 -975 36 -123 35 -260 -4 -1000 -20 -371 -38
-711 -41 -755 -3 -44 -19 -341 -36 -660 -16 -318 -34 -599 -40 -623 -36 -164
-171 -298 -332 -331 -37 -8 -1450 -10 -4842 -9 l-4790 3 -67 32 c-120 57 -210
164 -242 288 -9 37 -21 173 -31 355 -8 162 -24 459 -35 660 -102 1891 -102
1897 -57 2051 15 47 77 216 140 375 63 159 172 437 243 618 l129 329 6 -54 c4
-30 7 -168 8 -308z m2738 -2712 c122 -46 203 -120 261 -239 32 -67 37 -85 40
-171 5 -108 -9 -173 -55 -255 -88 -159 -296 -256 -476 -224 -307 55 -475 380
-339 658 58 120 193 225 322 252 66 13 180 4 247 -21z m4224 21 c173 -32 329
-181 368 -351 47 -203 -57 -423 -243 -514 -119 -59 -228 -67 -350 -28 -191 61
-317 235 -317 435 0 92 12 143 53 220 94 177 294 274 489 238z m-5346 -129
c75 -35 140 -99 174 -171 23 -48 26 -68 26 -155 0 -87 -3 -107 -26 -155 -35
-73 -100 -136 -179 -173 -56 -27 -75 -31 -145 -30 -148 1 -263 71 -327 201
-30 60 -33 75 -33 157 0 82 3 97 33 157 88 180 296 253 477 169z m6519 9 c75
-29 149 -98 188 -178 30 -60 33 -75 33 -152 -1 -116 -29 -185 -104 -261 -74
-73 -145 -102 -256 -102 -69 -1 -89 3 -145 29 -76 36 -141 97 -178 169 -24 45
-27 61 -27 155 0 92 3 112 26 160 46 97 148 178 253 200 56 12 148 3 210 -20z"/>
<path d="M7869 13720 c-192 -49 -343 -181 -417 -368 -24 -61 -26 -79 -26 -202
0 -155 14 -208 86 -318 109 -167 285 -262 488 -262 203 0 379 95 488 262 72
110 86 163 86 318 0 114 -3 144 -22 194 -60 162 -188 291 -350 353 -55 21 -87
27 -182 29 -63 2 -131 -1 -151 -6z m246 -264 c57 -26 117 -87 141 -143 9 -21
17 -67 17 -104 2 -110 -51 -196 -157 -252 -61 -32 -174 -31 -239 3 -96 48
-152 142 -151 250 1 77 19 123 71 180 53 60 121 90 203 90 47 0 79 -7 115 -24z"/>
<path d="M5723 6870 c-75 -30 -146 -98 -185 -178 -29 -59 -33 -76 -33 -147 0
-71 4 -88 33 -147 40 -82 111 -149 190 -178 80 -31 205 -25 277 12 66 34 129
100 163 168 23 47 27 67 27 145 0 79 -4 97 -29 149 -35 72 -88 127 -158 162
-73 38 -208 44 -285 14z"/>
<path d="M10050 6881 c-92 -29 -172 -98 -217 -189 -24 -50 -28 -68 -28 -147 1
-75 5 -99 26 -145 33 -69 93 -131 161 -166 75 -39 199 -45 280 -14 79 29 150
96 190 178 29 59 33 76 33 147 -1 66 -6 91 -29 143 -36 79 -114 152 -191 181
-57 22 -173 27 -225 12z"/>
</g>
</svg>
